<svg xmlns="http://www.w3.org/2000/svg" width="381" height="74" viewBox="0 0 381 74">
  <g id="ロゴ" transform="translate(0 -0.267)">
    <g id="マーク" transform="translate(0 0.267)">
      <path id="パス_34" data-name="パス 34" d="M62.375,52.722V38.24l-12.945,4.2V56.005s-8.121,1.773-22.039,11.94V49.938L14.559,54.661v28.3s-3.5.368-14.059-8.02V92.608s8.682,4.232,14.042,4.528v6.691H27.482s-.05-3.138,0-5.669c18.094-.787,19.759-25.328,1.682-27.4,1.87-1.511,9.863-4.781,19.822-4.584v37.656H62.559V66.3S73.311,67.324,75.5,68.669V51.541A90.436,90.436,0,0,0,62.375,52.722ZM35.1,79.856a8.056,8.056,0,0,1-7.917,8.188,8.192,8.192,0,0,1,0-16.376A8.054,8.054,0,0,1,35.1,79.856Z" transform="translate(-0.5 -29.826)" fill="#fff"/>
      <path id="パス_35" data-name="パス 35" d="M239.211,6.767V.7L226.27,5.358v5.608Z" transform="translate(-177.34 -0.7)" fill="#fff"/>
    </g>
    <g id="ホクシン" transform="translate(139 19.267)">
      <rect id="長方形_64" data-name="長方形 64" width="52.587" height="12.559" transform="translate(1.876 9.174)" fill="#fff"/>
      <rect id="長方形_65" data-name="長方形 65" width="12.734" height="54.655" transform="translate(21.61)" fill="#fff"/>
      <path id="パス_36" data-name="パス 36" d="M656.078,233.056H643.89l6-27.886h12.719Z" transform="translate(-643.89 -178.401)" fill="#fff"/>
      <path id="パス_37" data-name="パス 37" d="M942.637,121.432H928.12L943.614,90.15H957.93Z" transform="translate(-866.828 -89.181)" fill="#fff"/>
      <path id="パス_38" data-name="パス 38" d="M1261.042,97.364v12.678l-26.065-7.353-.127-12.539Z" transform="translate(-1107.414 -89.181)" fill="#fff"/>
      <path id="パス_39" data-name="パス 39" d="M1261.042,174.774v12.68l-26.065-7.353-.127-12.541Z" transform="translate(-1107.414 -149.227)" fill="#fff"/>
      <path id="パス_40" data-name="パス 40" d="M1552.7,100.144v12.678l-26.067-7.353-.125-12.539Z" transform="translate(-1336.18 -91.337)" fill="#fff"/>
      <path id="パス_41" data-name="パス 41" d="M821.86,233.056h12.309l-5.937-27.886H815.66Z" transform="translate(-778.619 -178.401)" fill="#fff"/>
      <path id="パス_42" data-name="パス 42" d="M1564.637,126.74h12.507v24.995c0,9.158-9.831,20.829-22.233,20.829H1525.19V160.155l29.071-.384c3.716,0,10.437-3.47,10.437-12.826C1564.693,144.743,1564.637,126.74,1564.637,126.74Z" transform="translate(-1335.145 -117.564)" fill="#fff"/>
      <path id="パス_43" data-name="パス 43" d="M1273.325,126.74h12.507v24.995c0,9.158-9.829,20.829-22.231,20.829H1233.88V160.155l29.071-.384c3.716,0,10.437-3.47,10.437-12.826C1273.384,144.743,1273.325,126.74,1273.325,126.74Z" transform="translate(-1106.653 -117.564)" fill="#fff"/>
      <path id="パス_44" data-name="パス 44" d="M965.36,151.337v12.31h27.076c12.261,0,20.486-6.893,20.486-23.388V125.6c0-6.269-.235-9.912-8.093-9.912H982.824l-6.9,12.364H999.44v14.075c0,7.682-4.164,9.208-7.332,9.208Z" transform="translate(-896.038 -108.992)" fill="#fff"/>
    </g>
    <text id="株式_会社" data-name="株式
会社" transform="translate(81.063 40.569)" fill="#fff" font-size="24" font-family="YuGo-Bold, YuGothic" font-weight="700" letter-spacing="0.007em"><tspan x="0" y="0">株式</tspan><tspan x="0" y="22">会社</tspan></text>
  </g>
</svg>
