<svg id="固定ロゴ" xmlns="http://www.w3.org/2000/svg" width="75" height="74" viewBox="0 0 75 74">
  <path id="パス_34" data-name="パス 34" d="M62.375,52.722V38.24l-12.945,4.2V56.005s-8.121,1.773-22.039,11.94V49.938L14.559,54.661v28.3s-3.5.368-14.059-8.02V92.608s8.682,4.232,14.042,4.528v6.691H27.482s-.05-3.138,0-5.669c18.094-.787,19.759-25.328,1.682-27.4,1.87-1.511,9.863-4.781,19.822-4.584v37.656H62.559V66.3S73.311,67.324,75.5,68.669V51.541A90.436,90.436,0,0,0,62.375,52.722ZM35.1,79.856a8.056,8.056,0,0,1-7.917,8.188,8.192,8.192,0,0,1,0-16.376A8.054,8.054,0,0,1,35.1,79.856Z" transform="translate(-0.5 -29.826)" fill="#fff"/>
  <path id="パス_35" data-name="パス 35" d="M239.211,6.767V.7L226.27,5.358v5.608Z" transform="translate(-177.34 -0.7)" fill="#fff"/>
</svg>
