<svg xmlns="http://www.w3.org/2000/svg" width="381" height="74.32" viewBox="0 0 381 74.32">
  <g id="ロゴ青" transform="translate(-941.609 -1167.512)">
    <circle id="楕円形_1" data-name="楕円形 1" cx="10" cy="10" r="10" transform="translate(957.609 1208.752)" fill="#ffea4b"/>
    <g id="レイヤー_2" data-name="レイヤー 2" transform="translate(941.609 1167.512)">
      <g id="レイヤー_1" data-name="レイヤー 1" transform="translate(0 0)">
        <path id="パス_34" data-name="パス 34" d="M62.108,52.777V38.24L49.219,42.461V56.073s-8.086,1.78-21.944,11.985V49.982L14.5,54.723V83.134s-3.483.369-14-8.05V92.813s8.644,4.248,13.981,4.545v6.716H27.366s-.05-3.15,0-5.69c18.016-.79,19.673-25.424,1.675-27.507,1.862-1.516,9.821-4.8,19.736-4.6v37.8H62.291V66.406S73,67.435,75.176,68.784V51.591A89.335,89.335,0,0,0,62.108,52.777ZM34.951,80.014a8.056,8.056,0,0,1-7.883,8.219,8.226,8.226,0,0,1,0-16.438A8.054,8.054,0,0,1,34.951,80.014Z" transform="translate(-0.5 -29.794)" fill="#2b5eb1"/>
        <path id="パス_35" data-name="パス 35" d="M239.155,6.79V.7L226.27,5.375V11Z" transform="translate(-177.551 -0.7)" fill="#2b5eb1"/>
        <rect id="長方形_64" data-name="長方形 64" width="52.622" height="12.597" transform="translate(140.713 28.355)" fill="#2b5eb1"/>
        <rect id="長方形_65" data-name="長方形 65" width="12.742" height="54.821" transform="translate(160.46 19.153)" fill="#2b5eb1"/>
        <path id="パス_36" data-name="パス 36" d="M656.086,233.141h-12.2L649.9,205.17h12.727Z" transform="translate(-505.054 -159.167)" fill="#2b5eb1"/>
        <path id="パス_37" data-name="パス 37" d="M942.647,121.527H928.12l15.5-31.377H957.95Z" transform="translate(-727.95 -70.025)" fill="#2b5eb1"/>
        <path id="パス_38" data-name="パス 38" d="M1261.06,97.386V110.1l-26.082-7.375-.127-12.577Z" transform="translate(-968.492 -70.025)" fill="#2b5eb1"/>
        <path id="パス_39" data-name="パス 39" d="M1261.06,174.8v12.719l-26.082-7.375-.127-12.579Z" transform="translate(-968.492 -130.018)" fill="#2b5eb1"/>
        <path id="パス_40" data-name="パス 40" d="M1552.719,100.166v12.716l-26.084-7.375-.125-12.577Z" transform="translate(-1197.215 -72.179)" fill="#2b5eb1"/>
        <path id="パス_41" data-name="パス 41" d="M821.864,233.141h12.317L828.24,205.17H815.66Z" transform="translate(-639.758 -159.167)" fill="#2b5eb1"/>
        <path id="パス_42" data-name="パス 42" d="M1564.664,126.74h12.516V151.81c0,9.186-9.838,20.892-22.248,20.892H1525.19V160.257l29.09-.385c3.718,0,10.444-3.481,10.444-12.865C1564.72,144.8,1564.664,126.74,1564.664,126.74Z" transform="translate(-1196.18 -98.382)" fill="#2b5eb1"/>
        <path id="パス_43" data-name="パス 43" d="M1273.352,126.74h12.516V151.81c0,9.186-9.836,20.892-22.246,20.892H1233.88V160.257l29.09-.385c3.718,0,10.444-3.481,10.444-12.865C1273.41,144.8,1273.352,126.74,1273.352,126.74Z" transform="translate(-967.731 -98.382)" fill="#2b5eb1"/>
        <path id="パス_44" data-name="パス 44" d="M965.36,151.445v12.347h27.094c12.27,0,20.5-6.914,20.5-23.46v-14.7c0-6.288-.235-9.942-8.1-9.942h-22.02l-6.9,12.4h23.531v14.118c0,7.706-4.167,9.236-7.337,9.236Z" transform="translate(-757.155 -89.819)" fill="#2b5eb1"/>
      </g>
    </g>
    <path id="パス_52" data-name="パス 52" d="M15.1-14.15v3.275H13.4c-2.4,0-3.225-.05-3.375-.05-.25,0-.275.025-.275.25V-9.65a18.833,18.833,0,0,1-2.425-4.125c1.325.025,1.75.05,1.9.05.25,0,.275-.025.275-.275v-1.775c0-.25-.025-.275-.275-.275-.15,0-.625.05-2.05.05v-1.525A6.4,6.4,0,0,1,7.35-19.95a1.172,1.172,0,0,0,.15-.525c0-.125-.175-.225-.425-.25a23.518,23.518,0,0,0-2.5-.175,18.768,18.768,0,0,1,.2,3.4V-16h-.75c-1.675,0-2.2-.05-2.35-.05-.25,0-.275.025-.275.275V-14c0,.25.025.275.275.275.15,0,.675-.05,2.35-.05h.55A23.24,23.24,0,0,1,.775-5.75a8.371,8.371,0,0,1,.85,1.875c.1.275.175.425.3.425.1,0,.225-.15.375-.4A22.631,22.631,0,0,0,4.85-9.675C4.8-3.75,4.675,1.25,4.675,1.7c0,.25.025.275.3.275H7c.25,0,.275-.025.275-.275,0-.45-.15-5.725-.175-12.325a21.544,21.544,0,0,0,1.4,3.25c.15.3.25.45.325.45.1,0,.175-.15.3-.4.15-.375.4-.85.65-1.325.025.075.1.075.25.075s.975-.05,3.375-.05h.825A18.545,18.545,0,0,1,7.925-2,4.765,4.765,0,0,1,9-.55c.175.375.275.55.425.55.125,0,.3-.125.575-.35a19.073,19.073,0,0,0,5.175-6.075c-.05,3.85-.15,7.575-.15,8.075,0,.225.025.25.275.25h2.05c.25,0,.275-.025.275-.25,0-.5-.125-4.325-.15-8.275a22.1,22.1,0,0,0,4.85,6.15c.25.225.4.325.525.325.15,0,.25-.15.4-.5A6.781,6.781,0,0,1,24.3-2.425a20.751,20.751,0,0,1-5.95-6.2h1.775c2.375,0,3.2.05,3.35.05.225,0,.25-.025.25-.3v-1.8c0-.225-.025-.25-.25-.25-.15,0-.975.05-3.35.05H17.55V-14.15h1.825c2.15,0,2.875.05,3.025.05.25,0,.275-.025.275-.275V-16.15c0-.275-.025-.3-.275-.3-.15,0-.875.05-3.025.05H17.55v-.85a7.557,7.557,0,0,1,.175-2.6,1.387,1.387,0,0,0,.15-.55c0-.125-.15-.225-.425-.25-.85-.1-1.6-.15-2.525-.175A24.618,24.618,0,0,1,15.1-17.2v.8H13.3c.1-.375.2-.725.275-1.075a2.75,2.75,0,0,1,.3-.925.925.925,0,0,0,.2-.475c0-.175-.175-.25-.4-.325a15.433,15.433,0,0,0-2.15-.45,7.153,7.153,0,0,1-.175,1.55,15.45,15.45,0,0,1-2.1,5.375A5.076,5.076,0,0,1,10.675-12c.3.225.45.325.575.325.15,0,.225-.15.4-.5a18.045,18.045,0,0,0,.875-1.975Zm24.425.45A39.292,39.292,0,0,0,41.25-3.775c1.25,3.7,3,5.475,4.9,5.5C47.625,1.75,48.675.4,49.175-2.8c.1-.775.1-.775-.625-1.175A8.092,8.092,0,0,1,46.925-5.1c-.15,2.275-.45,3.65-1.125,3.65-.75,0-1.525-1.45-2.25-3.7a31.621,31.621,0,0,1-1.425-8.55H45.1c2.275,0,3.05.05,3.2.05.25,0,.275-.025.275-.3v-1.975c0-.275-.025-.3-.275-.3-.15,0-.925.05-3.2.05H42.025v-1.1A8.441,8.441,0,0,1,42.15-19.8a1.616,1.616,0,0,0,.15-.525c0-.15-.15-.275-.4-.3-.85-.1-1.825-.125-2.725-.15a23.83,23.83,0,0,1,.2,3.575c0,.35.025.7.025,1.025H30.425c-2.275,0-3.05-.05-3.2-.05-.25,0-.25.025-.25.3v1.975c0,.275,0,.3.25.3.15,0,.925-.05,3.2-.05ZM35.45-8.15c2.1,0,2.8.05,2.95.05.275,0,.3-.025.3-.25v-1.875c0-.275-.025-.3-.3-.3-.15,0-.85.05-2.95.05H31.025c-2.125,0-2.825-.05-2.975-.05-.25,0-.275.025-.275.3V-8.35c0,.225.025.25.275.25.15,0,.85-.05,2.975-.05h.85v5.5l-2.4.45a13.691,13.691,0,0,1-2.4.3c.2.875.45,1.925.65,2.525.075.225.2.325.35.325a.932.932,0,0,0,.45-.175A3.345,3.345,0,0,1,29.575.4c2.7-.575,6.45-1.6,8.95-2.425.75-.225.75-.225.75-1.05,0-.5.025-1.125.075-1.575-1.5.525-3.225,1-4.875,1.4v-4.9ZM43.5-19.625c-.25.175-.3.25-.1.45A11.132,11.132,0,0,1,45.35-16.8c.075.125.15.2.225.2a.694.694,0,0,0,.325-.15l1.175-.8c.3-.2.325-.3.175-.5a11.79,11.79,0,0,0-2.15-2.3c-.1-.1-.175-.15-.25-.15s-.15.05-.3.15ZM8.525,16.775a40.386,40.386,0,0,1-2.2,4.85c-.275,0-.55.025-.8.025a19.821,19.821,0,0,1-2.725,0c.15.875.3,1.75.525,2.575.05.225.175.35.35.35a.631.631,0,0,0,.425-.15A2.219,2.219,0,0,1,5,24.2c4.25-.325,9.35-.75,13.5-1.275.4.6.825,1.25,1.25,1.95.075.125.125.175.2.175s.15-.05.3-.15l1.725-1.125c.25-.175.25-.275.125-.475a44.119,44.119,0,0,0-4.65-5.8c-.175-.175-.25-.2-.525-.05l-1.6.825c-.3.15-.325.25-.15.45.675.725,1.25,1.425,1.825,2.125-2.375.25-5.1.475-7.7.625a46.806,46.806,0,0,0,2.225-4.7H19.25c2.35,0,3.15.05,3.3.05.275,0,.3-.025.3-.275V14.675c0-.25-.025-.275-.3-.275-.15,0-.95.05-3.3.05H5.925c-2.35,0-3.15-.05-3.3-.05-.275,0-.3.025-.3.275V16.55c0,.25.025.275.3.275.15,0,.95-.05,3.3-.05Zm-1-4.875c0,.25.025.275.275.275.15,0,.825-.05,2.825-.05h3.85c2,0,2.675.05,2.825.05.25,0,.275-.025.275-.275V10.05A27.543,27.543,0,0,0,22.35,12.7a1.719,1.719,0,0,0,.575.2c.175,0,.25-.175.425-.625A7.425,7.425,0,0,1,24.425,10.4,22.513,22.513,0,0,1,13.85,3.25a2.127,2.127,0,0,1,.35-.225.412.412,0,0,0,.25-.4c0-.175-.15-.275-.45-.35a19.16,19.16,0,0,0-2.7-.525,7.456,7.456,0,0,1-.875,1.625,20.867,20.867,0,0,1-9.6,7.275A5.845,5.845,0,0,1,1.95,12.3c.2.45.275.625.45.625A1.638,1.638,0,0,0,3,12.7,29.239,29.239,0,0,0,7.525,10Zm3.1-2.1C8.8,9.8,8.1,9.775,7.875,9.75A23.328,23.328,0,0,0,12.45,5.175,22.779,22.779,0,0,0,17.175,9.75c-.275.025-1.025.05-2.7.05Zm34.85,14.25c2.375,0,3.175.05,3.325.05.275,0,.3-.025.3-.275V21.85c0-.25-.025-.275-.3-.275-.15,0-.95.05-3.325.05H43.2v-9.35h1.575c2.225,0,3,.025,3.15.025.25,0,.275,0,.275-.25V10.075c0-.25-.025-.25-.275-.25-.15,0-.925.025-3.15.025H43.2V5.8a8.164,8.164,0,0,1,.2-2.75,1.015,1.015,0,0,0,.125-.525c0-.125-.175-.225-.4-.25-.875-.1-1.825-.15-2.775-.175a22.62,22.62,0,0,1,.2,3.775V9.85H39.425c-2.225,0-3-.025-3.15-.025-.225,0-.25,0-.25.25V12.05c0,.25.025.25.25.25.15,0,.925-.025,3.15-.025H40.55v9.35h-2.1c-2.375,0-3.2-.05-3.35-.05-.25,0-.275.025-.275.275v1.975c0,.25.025.275.275.275.15,0,.975-.05,3.35-.05ZM30.1,21.775c0,1.85-.05,2.8-.05,2.95,0,.25.025.275.3.275h2c.275,0,.3-.025.3-.275,0-.125-.05-1.1-.05-2.95V14.75a18.662,18.662,0,0,0,2.15,2.325c.225.2.375.3.5.3.175,0,.3-.175.475-.55a6,6,0,0,1,1-1.625,14.248,14.248,0,0,1-3.675-2.925,25.268,25.268,0,0,0,2.125-3.65A2.535,2.535,0,0,1,35.75,7.9.487.487,0,0,0,36,7.5c0-.175-.2-.425-.675-.9-.525-.5-.775-.65-.925-.65a.742.742,0,0,0-.275.1.84.84,0,0,1-.475.1H32.6V5.025a5.3,5.3,0,0,1,.15-2A1.172,1.172,0,0,0,32.9,2.5c0-.1-.15-.225-.4-.25-.9-.1-1.65-.15-2.6-.175a15.407,15.407,0,0,1,.2,3.05V6.15h-.475c-1.9,0-2.5-.05-2.65-.05-.25,0-.275.025-.275.275v1.85c0,.25.025.275.275.275.15,0,.75-.05,2.65-.05H32.45a17.266,17.266,0,0,1-6.525,7.4,6.9,6.9,0,0,1,.875,1.775c.15.375.25.575.4.575.125,0,.275-.125.525-.325A26.12,26.12,0,0,0,30.1,15.8Z" transform="translate(1022.773 1210.135)" fill="#2b5eb1"/>
  </g>
</svg>
