<svg xmlns="http://www.w3.org/2000/svg" width="285.07" height="41.017" viewBox="0 0 285.07 41.017">
  <g id="電話番号" transform="translate(3.001 1.394)">
    <g id="パス_48" data-name="パス 48" transform="translate(-59.712 1.607)" fill="none">
      <path d="M62.113,1.483c-2.406,1.56-2.879,6.438-1.97,10.414A35.909,35.909,0,0,0,64.89,23.056a37.293,37.293,0,0,0,8.253,8.886c3.259,2.451,7.906,4.008,10.312,2.448a12.185,12.185,0,0,0,3.107-3.332l-1.293-1.993-3.555-5.481c-.264-.407-1.921-.035-2.762.442A8.012,8.012,0,0,0,76.772,26.4c-.778.45-1.43,0-2.792-.625-1.674-.77-3.556-3.163-5.054-5.331-1.368-2.252-2.786-4.946-2.806-6.789-.017-1.5-.16-2.277.568-2.8a8.013,8.013,0,0,0,3.052-1.025c.778-.574,1.794-1.935,1.53-2.342L67.714,2,66.422.005A12.186,12.186,0,0,0,62.113,1.483Z" stroke="none"/>
      <path d="M 66.34765625 -0.000713348388671875 C 65.77079772949219 -0.000759124755859375 63.26899719238281 0.7331619262695312 62.11251068115234 1.483203887939453 C 59.70642852783203 3.043663024902344 59.23375701904297 7.921401977539062 60.14216613769531 11.89690208435059 C 60.84961700439453 14.99280166625977 62.35372924804688 19.14571189880371 64.89002990722656 23.05630111694336 C 67.2760009765625 26.73517227172852 70.60478210449219 30.03392219543457 73.14298248291016 31.94250106811523 C 75.49702453613281 33.71244812011719 78.57483673095703 35.01671600341797 81.00933837890625 35.01671600341797 C 81.94564819335938 35.01671600341797 82.78657531738281 34.82389068603516 83.45492553710938 34.39044189453125 C 84.67156982421875 33.60138320922852 86.4791259765625 31.4455623626709 86.56161499023438 31.05873107910156 C 86.56161499023438 31.05873107910156 85.50166320800781 29.42440223693848 85.26905822753906 29.06574249267578 L 81.71452331542969 23.58504104614258 C 81.63521575927734 23.46276473999023 81.43029022216797 23.41073608398438 81.15970611572266 23.41073608398438 C 80.529052734375 23.41073608398438 79.54122924804688 23.69312477111816 78.95236968994141 24.02666091918945 C 77.8172607421875 24.66983222961426 76.77185821533203 26.39553070068359 76.77185821533203 26.39553070068359 C 76.55210876464844 26.52250099182129 76.34234619140625 26.57791519165039 76.12390899658203 26.57791519165039 C 75.56871032714844 26.57791519165039 74.95703887939453 26.22017097473145 73.97950744628906 25.77028274536133 C 72.30545043945312 25.00004196166992 70.42327117919922 22.6068229675293 68.92523193359375 20.43922233581543 C 67.55703735351562 18.1875114440918 66.13945007324219 15.49289131164551 66.11892700195312 13.65023231506348 C 66.10204315185547 12.15091133117676 65.95881652832031 11.37301254272461 66.68686676025391 10.84570121765137 C 66.68686676025391 10.84570121765137 68.68887329101562 10.59497261047363 69.73905944824219 9.820892333984375 C 70.51743316650391 9.246932983398438 71.53288269042969 7.886322021484375 71.26873779296875 7.478971481323242 L 67.71420288085938 1.998332977294922 C 67.48159790039062 1.639682769775391 66.42163848876953 0.005352020263671875 66.42163848876953 0.005352020263671875 C 66.40251159667969 0.001277923583984375 66.37766265869141 -0.00070953369140625 66.34765625 -0.000713348388671875 M 66.34760284423828 -3.000709533691406 C 66.58724975585938 -3.000709533691406 66.82219696044922 -2.976566314697266 67.04592895507812 -2.928966522216797 L 68.26206970214844 -2.670238494873047 L 68.93862915039062 -1.627067565917969 L 70.23120880126953 0.3659439086914062 L 73.78572082519531 5.846551895141602 C 74.12429809570312 6.368701934814453 74.61139678955078 7.466901779174805 74.07121276855469 8.957921981811523 C 73.9163818359375 9.385292053222656 73.67946624755859 9.832422256469727 73.36708068847656 10.28687286376953 C 72.8477783203125 11.04232215881348 72.17436981201172 11.7525520324707 71.51950836181641 12.23543167114258 C 70.79066467285156 12.77265167236328 69.91152191162109 13.13649749755859 69.11515045166016 13.38003730773926 C 69.11658477783203 13.45639228820801 69.11782836914062 13.53528213500977 69.11873626708984 13.61644172668457 C 69.12234497070312 13.94040298461914 69.30156707763672 15.2667064666748 71.44341278076172 18.8061351776123 C 73.80171966552734 22.20528602600098 74.93949127197266 22.90965843200684 75.23345947265625 23.044921875 C 75.30733489990234 23.07891845703125 75.37896728515625 23.11227607727051 75.44818115234375 23.14476013183594 C 75.99527740478516 22.5169734954834 76.68587493896484 21.8627815246582 77.47342681884766 21.41654205322266 C 78.53571319580078 20.81484222412109 80.01696014404297 20.41073226928711 81.15970611572266 20.41073226928711 C 82.96240234375 20.41073226928711 83.85810089111328 21.3768310546875 84.23155975341797 21.95271301269531 L 87.78604888916016 27.4333324432373 L 89.07861328125 29.42631149291992 L 89.75483703613281 30.4689826965332 L 89.49565124511719 31.68440246582031 C 89.38050079345703 32.22440338134766 89.13484191894531 32.93764114379883 87.66841888427734 34.57512283325195 C 87.02682495117188 35.29156112670898 86.05821990966797 36.27776336669922 85.08731842041016 36.90744018554688 C 83.95237731933594 37.64350128173828 82.58035278320312 38.0167121887207 81.00933837890625 38.0167121887207 C 79.444580078125 38.0167121887207 77.73619079589844 37.65065383911133 75.931640625 36.92869186401367 C 74.32514190673828 36.28597259521484 72.73741912841797 35.39094161987305 71.34011077880859 34.34035110473633 C 68.78531646728516 32.41929244995117 65.08812713623047 28.87505149841309 62.37303924560547 24.688720703125 C 59.16884613037109 19.74834251403809 57.76763153076172 14.97239112854004 57.21755981445312 12.56521224975586 C 56.66555023193359 10.1494312286377 56.56056976318359 7.573221206665039 56.92198181152344 5.311122894287109 C 57.39272308349609 2.364601135253906 58.62310791015625 0.170562744140625 60.48011016845703 -1.033798217773438 C 61.4080810546875 -1.635627746582031 62.63954162597656 -2.103248596191406 63.50919342041016 -2.389549255371094 C 64.74101257324219 -2.795089721679688 65.69599151611328 -3.000709533691406 66.34760284423828 -3.000709533691406 Z" stroke="none" fill="#4e8481"/>
    </g>
    <text id="_011-882-2411" data-name="011-882-2411" transform="translate(38.069 32.827)" fill="#4e8481" font-size="37" font-family="YuGo-Bold, YuGothic" font-weight="700"><tspan x="0" y="0">011-882-2411</tspan></text>
  </g>
</svg>
