<svg xmlns="http://www.w3.org/2000/svg" width="34.071" height="43.788" viewBox="0 0 34.071 43.788">
  <g id="電話の受話器のアイコン素材" transform="translate(-58.698 1.05)">
    <path id="パス_48" data-name="パス 48" d="M62.572,1.767c-2.867,1.859-3.43,7.671-2.348,12.408a42.787,42.787,0,0,0,5.657,13.3,44.435,44.435,0,0,0,9.834,10.588c3.884,2.92,9.42,4.776,12.287,2.917a14.519,14.519,0,0,0,3.7-3.97l-1.54-2.375L85.929,28.1c-.315-.485-2.289-.042-3.291.526a9.547,9.547,0,0,0-2.6,2.823c-.927.536-1.7,0-3.327-.745-1.995-.918-4.237-3.769-6.022-6.352-1.63-2.683-3.319-5.894-3.344-8.089-.02-1.787-.191-2.713.677-3.342A9.548,9.548,0,0,0,71.66,11.7c.927-.684,2.137-2.305,1.823-2.791l-4.235-6.53L67.707.007A14.52,14.52,0,0,0,62.572,1.767Z" transform="translate(0 0)" fill="none" stroke="#4e8481" stroke-width="2"/>
  </g>
</svg>
